<?xml version="1.0" encoding="UTF-8" standalone="no"?>
<!DOCTYPE svg PUBLIC "-//W3C//DTD SVG 1.1//EN" "http://www.w3.org/Graphics/SVG/1.1/DTD/svg11.dtd">
<svg width="100%" height="100%" viewBox="0 0 2000 2000" version="1.1" xmlns="http://www.w3.org/2000/svg" xmlns:xlink="http://www.w3.org/1999/xlink" xml:space="preserve" xmlns:serif="http://www.serif.com/" style="fill-rule:evenodd;clip-rule:evenodd;stroke-linejoin:round;stroke-miterlimit:2;">
    <g id="prominent-bg" serif:id="prominent bg" transform="matrix(0.931532,0,0,0.931532,0,0)">
        <rect x="0" y="0" width="2147" height="2147" style="fill:rgb(239,231,220);"/>
    </g>
    <g id="Tilted" transform="matrix(0.965926,-0.258819,0.258819,0.965926,-224.744871,292.893219)">
        <path d="M377,1258.055L118.945,1000L377,741.945L377,377L741.945,377L1000,118.945L1258.055,377L1623,377L1623,741.945L1881.055,1000L1623,1258.055L1623,1623L1258.055,1623L1000,1881.055L741.945,1623L377,1623L377,1258.055Z" style="fill:rgb(26,26,26);"/>
        <g transform="matrix(4.503742,0,-0,2.344606,-5771.530774,-1665.671946)">
            <path d="M1449,1094C1449,1094 1447.684,1054.737 1449,1049C1450.316,1043.263 1485.975,1018.329 1498,995C1498,995 1496.638,991.298 1505,986L1520,976C1520,976 1523.636,971.532 1528,976C1532.364,980.468 1535.726,988.483 1566,1009C1566,1009 1572.685,1012.677 1566,1018L1553,1029C1553,1029 1549.72,1030.364 1550,1036C1550,1036 1548.59,1231.828 1550,1243C1550,1243 1550.33,1258.01 1572,1268C1572,1268 1579.214,1271.708 1572,1275C1572,1275 1568.894,1280.422 1562,1283C1562,1283 1548.641,1290.559 1545,1295C1545,1295 1540.147,1299.592 1536,1294C1536,1294 1521.687,1287.82 1516,1271C1516,1271 1513.424,1259.993 1506,1271C1506,1271 1479.123,1293.334 1467,1298C1467,1298 1457.728,1304.581 1457,1293C1457,1293 1449.971,1280.561 1436,1266C1436,1266 1426.69,1260.475 1436,1256C1436,1256 1441.391,1253.604 1447,1247C1447,1247 1450.854,1260.14 1448,1160C1448,1160 1444.98,1154.498 1453,1152L1470,1137C1470,1137 1471.958,1131.682 1478,1127L1513,1084C1513,1084 1516.042,1079.544 1517,1070L1518,1020C1518,1020 1518.609,1016.572 1515,1014L1505,1005C1505,1005 1502.628,1000.983 1500,1005L1483,1027C1483,1027 1480.849,1028.378 1481,1033L1483,1076C1483,1076 1483.861,1079.266 1480,1081C1480,1081 1465.152,1089.545 1456,1098C1456,1098 1449.574,1104.675 1449,1094ZM1516,1109C1516,1109 1515.13,1131.399 1519,1172C1519,1172 1518.235,1208.053 1518,1232L1518,1244C1518,1244 1519.335,1244.677 1516,1249L1499,1268C1499,1268 1494.17,1274.609 1492,1269C1492,1269 1486.768,1258.763 1481,1251C1481,1251 1477.941,1248.557 1481,1244C1481,1244 1483.309,1230.178 1480,1208L1480,1142C1480,1142 1477.635,1137.179 1483,1134L1511,1104C1511,1104 1516.918,1097.638 1516,1109Z" style="fill:rgb(239,231,220);"/>
        </g>
        <g transform="matrix(0.891381,0,0,0.891381,155.52871,61.182029)">
            <path d="M1355,525C1355,525 1331.438,572.28 1343,603C1343,603 1354.016,660.216 1433,655C1433,655 1459.989,653.643 1481,636C1481,636 1498.105,620.616 1509,613C1509,613 1537.227,586.587 1527,540C1527,540 1526.34,522.917 1517,512C1517,512 1511.374,466.4 1448,462C1448,462 1434.1,462.822 1421,470C1421,470 1398.32,474.332 1383,486C1383,486 1364.616,498.148 1355,525Z" style="fill:rgb(208,67,62);"/>
        </g>
    </g>
</svg>
