<?xml version="1.0" encoding="UTF-8" standalone="no"?>
<!DOCTYPE svg PUBLIC "-//W3C//DTD SVG 1.1//EN" "http://www.w3.org/Graphics/SVG/1.1/DTD/svg11.dtd">
<svg width="100%" height="100%" viewBox="0 0 2000 2000" version="1.1" xmlns="http://www.w3.org/2000/svg" xmlns:xlink="http://www.w3.org/1999/xlink" xml:space="preserve" xmlns:serif="http://www.serif.com/" style="fill-rule:evenodd;clip-rule:evenodd;stroke-linejoin:round;stroke-miterlimit:2;">
    <g id="Tilted" transform="matrix(0.965926,-0.258819,0.258819,0.965926,-224.744871,292.893219)">
        <g transform="matrix(0.870112,0,-0,0.870112,120.317039,28.955307)">
            <path d="M295,1412.577L-1.577,1116L295,819.423L295,400L714.423,400L1011,103.423L1307.577,400L1727,400L1727,819.423L2023.577,1116L1727,1412.577L1727,1832L1307.577,1832L1011,2128.577L714.423,1832L295,1832L295,1412.577ZM728.728,1000.299C731.698,1029.063 764.96,1011.077 764.96,1011.077C812.33,988.294 889.186,965.269 889.186,965.269C909.171,960.596 904.714,951.796 904.714,951.796L894.362,835.928C893.578,823.474 904.714,819.76 904.714,819.76L992.707,760.479C1006.312,749.656 1018.587,760.479 1018.587,760.479L1070.347,784.73C1089.028,791.661 1085.875,800.898 1085.875,800.898L1080.699,935.628C1075.742,961.346 1059.995,973.353 1059.995,973.353L878.833,1089.221C847.558,1101.838 837.425,1116.167 837.425,1116.167L749.432,1156.586C707.919,1163.316 723.552,1178.143 723.552,1178.143C738.324,1447.981 718.376,1412.573 718.376,1412.573C689.343,1430.367 661.439,1436.824 661.439,1436.824C613.25,1448.883 661.439,1463.77 661.439,1463.77C733.755,1503.006 770.136,1536.525 770.136,1536.525C773.903,1567.73 821.897,1549.998 821.897,1549.998C884.647,1537.426 1023.763,1477.244 1023.763,1477.244C1062.192,1447.584 1075.523,1477.244 1075.523,1477.244C1104.961,1522.567 1179.044,1539.219 1179.044,1539.219C1200.512,1554.287 1225.629,1541.914 1225.629,1541.914C1244.472,1529.948 1313.622,1509.579 1313.622,1509.579C1349.308,1502.632 1365.382,1488.022 1365.382,1488.022C1402.723,1479.151 1365.382,1469.16 1365.382,1469.16C1253.219,1442.242 1251.509,1401.795 1251.509,1401.795C1244.209,1371.692 1251.509,844.012 1251.509,844.012C1250.062,828.826 1267.037,825.15 1267.037,825.15L1334.326,795.509C1368.928,781.166 1334.326,771.257 1334.326,771.257C1177.628,715.971 1160.222,694.375 1137.636,682.336C1115.05,670.296 1096.228,682.336 1096.228,682.336L1018.587,709.282C975.305,723.558 982.354,733.533 982.354,733.533C920.114,796.395 735.539,863.583 728.728,879.042C721.917,894.5 728.728,1000.299 728.728,1000.299ZM1075.523,1040.718C1075.523,1040.718 1071.022,1101.074 1091.051,1210.478C1091.051,1210.478 1087.094,1307.627 1085.875,1372.154L1085.875,1404.489C1085.875,1404.489 1092.784,1406.314 1075.523,1417.962L987.53,1469.16C987.53,1469.16 962.532,1486.968 951.298,1471.854C951.298,1471.854 924.215,1444.269 894.362,1423.351C894.362,1423.351 878.526,1416.769 894.362,1404.489C894.362,1404.489 906.313,1367.244 889.186,1307.484L889.186,1129.64C889.186,1129.64 876.944,1116.65 904.714,1108.083L1049.643,1027.245C1049.643,1027.245 1080.273,1010.101 1075.523,1040.718Z" style="fill:rgb(26,26,26);"/>
        </g>
        <g transform="matrix(0.891381,0,0,0.891381,155.52871,61.182029)">
            <path d="M1355,525C1355,525 1331.438,572.28 1343,603C1343,603 1354.016,660.216 1433,655C1433,655 1459.989,653.643 1481,636C1481,636 1498.105,620.616 1509,613C1509,613 1537.227,586.587 1527,540C1527,540 1526.34,522.917 1517,512C1517,512 1511.374,466.4 1448,462C1448,462 1434.1,462.822 1421,470C1421,470 1398.32,474.332 1383,486C1383,486 1364.616,498.148 1355,525Z" style="fill:rgb(208,67,62);"/>
        </g>
    </g>
</svg>
